<svg xmlns="http://www.w3.org/2000/svg" viewBox="0 0 512 512" width="100%" height="100%">
  <defs>
    <linearGradient id="bgGrad512" x1="0%" y1="0%" x2="100%" y2="100%">
      <stop offset="0%" stop-color="#10b981" />
      <stop offset="100%" stop-color="#047857" />
    </linearGradient>
    <filter id="shadow512" x="-10%" y="-10%" width="120%" height="120%">
      <feDropShadow dx="0" dy="12" stdDeviation="16" flood-color="#000000" flood-opacity="0.25" />
    </filter>
  </defs>
  <rect width="512" height="512" rx="112" fill="url(#bgGrad512)" />
  <g filter="url(#shadow512)" fill="none" stroke="#ffffff" stroke-width="28" stroke-linecap="round" stroke-linejoin="round" transform="translate(0, 10)">
    <path d="M 256 120 C 340 120, 390 190, 370 290 C 350 380, 256 410, 256 410 C 256 410, 162 380, 142 290 C 122 190, 172 120, 256 120 Z" fill="#ffffff" fill-opacity="0.15" />
    <path d="M 256 160 C 256 260, 256 370, 256 370" />
    <path d="M 256 240 C 290 220, 320 225, 320 225" />
    <path d="M 256 290 C 220 270, 190 275, 190 275" />
    <path d="M 256 330 C 285 315, 310 320, 310 320" />
    <path d="M 256 120 C 256 90, 280 75, 310 75 C 310 100, 285 120, 256 120 Z" fill="#ffffff" stroke="none" />
  </g>
</svg>
